<svg width="252" height="227" viewBox="0 0 252 227" fill="none" xmlns="http://www.w3.org/2000/svg">
<path d="M66.9339 0C49.6984 0 32.4898 6.83524 19.489 20.5129C-6.51286 47.8677 -6.47979 91.6609 19.489 119.034L119.104 224.064C119.986 224.992 121.048 225.73 122.224 226.235C123.399 226.74 124.665 227 125.945 227C127.224 227 128.49 226.74 129.666 226.235C130.842 225.73 131.903 224.992 132.786 224.064C166.028 189.092 199.257 154.105 232.499 119.132C258.5 91.7771 258.5 47.9667 232.499 20.6115C206.497 -6.74366 163.513 -6.74429 137.511 20.6115L125.994 32.7417L114.379 20.5129C101.378 6.83527 84.1693 0 66.9339 0ZM66.9339 18.5405C79.0732 18.5405 91.1888 23.5282 100.697 33.5307L119.202 52.9587C120.085 53.8865 121.146 54.6251 122.322 55.1297C123.498 55.6344 124.764 55.8946 126.043 55.8946C127.322 55.8946 128.588 55.6344 129.764 55.1297C130.94 54.6251 132.002 53.8865 132.884 52.9587L151.291 33.6293C170.307 13.624 199.802 13.6244 218.817 33.6293C237.832 53.6342 237.832 86.1097 218.817 106.115C187.863 138.679 156.947 171.282 125.994 203.847L33.1714 106.016C14.1663 85.9836 14.1563 53.535 33.1714 33.5307C42.6786 23.5283 54.7946 18.5405 66.9339 18.5405Z" fill="#2F2F2F"/>
</svg>
