<svg width="20" height="24" viewBox="0 0 20 24" fill="none" xmlns="http://www.w3.org/2000/svg">
<path d="M19.5466 4.68501L15.3453 0.483711C15.119 0.257418 14.8181 0.132812 14.4981 0.132812H3.28405C2.62335 0.132812 2.08594 0.670225 2.08594 1.33093V11.5028H2.48109V19.613H2.08594V22.6441C2.08594 23.3048 2.62335 23.8422 3.28405 23.8422H18.6996C19.3603 23.8422 19.8977 23.3048 19.8977 22.6441V5.53223C19.8975 5.21215 19.7729 4.91157 19.5466 4.68501Z" fill="#DCDFE1"/>
<path d="M15.3988 12.0293H2.08594V20.1395H15.399C15.8031 20.1395 16.1306 19.8236 16.1306 19.4343V12.7345C16.1303 12.3452 15.8029 12.0293 15.3988 12.0293Z" fill="#C4CBD2"/>
<path d="M0.0761719 18.9069C0.0761719 19.2965 0.403625 19.6121 0.807738 19.6121H14.8534C15.2575 19.6121 15.585 19.2963 15.585 18.9069V12.2072C15.585 11.8176 15.2575 11.502 14.8534 11.502H0.807738C0.403625 11.502 0.0761719 11.8178 0.0761719 12.2072V18.9069Z" fill="#EA5440"/>
<path d="M4.17392 12.9766H2.60805C2.38966 12.9766 2.21289 13.1536 2.21289 13.3717V15.9676V17.745C2.21289 17.9632 2.38966 18.1402 2.60805 18.1402C2.82644 18.1402 3.0032 17.9632 3.0032 17.745V16.3628H4.17392C4.80406 16.3628 5.31671 15.8501 5.31671 15.2197V14.1194C5.31671 13.4892 4.80406 12.9766 4.17392 12.9766ZM4.5264 15.22C4.5264 15.4144 4.36807 15.5727 4.17392 15.5727H3.0032V13.7671H4.17392C4.36834 13.7671 4.5264 13.9255 4.5264 14.1199V15.22Z" fill="white"/>
<path d="M8.12239 18.1405H6.63344C6.41505 18.1405 6.23828 17.9634 6.23828 17.7453V13.3717C6.23828 13.1536 6.41505 12.9766 6.63344 12.9766H8.12239C8.79494 12.9766 9.3421 13.5237 9.3421 14.1965V16.9207C9.34237 17.593 8.79494 18.1405 8.12239 18.1405ZM7.02859 17.3502H8.12239C8.35922 17.3502 8.55179 17.1576 8.55179 16.9207V14.1965C8.55179 13.9597 8.35922 13.7669 8.12239 13.7669H7.02859V17.3502Z" fill="white"/>
<path d="M13.0546 12.9766H10.7409C10.5227 12.9766 10.3457 13.1536 10.3457 13.3717V17.7453C10.3457 17.9634 10.5227 18.1405 10.7409 18.1405C10.959 18.1405 11.136 17.9634 11.136 17.7453V15.9537H12.2562C12.4743 15.9537 12.6513 15.7766 12.6513 15.5585C12.6513 15.3404 12.4743 15.1634 12.2562 15.1634H11.136V13.7669H13.0544C13.2725 13.7669 13.4495 13.5898 13.4495 13.3717C13.4495 13.1536 13.2728 12.9766 13.0546 12.9766Z" fill="white"/>
<path d="M15.0137 4.98242L19.8978 9.84811L19.8794 5.33016L15.0137 4.98242Z" fill="#C4CBD2"/>
<path d="M19.5467 4.68505L15.3454 0.483748C15.1676 0.305664 14.9426 0.19344 14.6992 0.152344V4.20454C14.6992 4.82573 15.2048 5.33126 15.8259 5.33126H19.8781C19.837 5.08811 19.7248 4.86313 19.5467 4.68505Z" fill="#ABB2B8"/>
</svg>
