<svg width="24" height="24" viewBox="0 0 24 24" fill="none" xmlns="http://www.w3.org/2000/svg">
    <g clip-path="url(#clip0_212_1770)">
        <mask id="mask0_212_1770" style="mask-type:luminance" maskUnits="userSpaceOnUse" x="0" y="0" width="24"
            height="24">
            <path d="M24 0H0V24H24V0Z" fill="white" />
        </mask>
        <g mask="url(#mask0_212_1770)">
            <path
                d="M12 24C18.6274 24 24 18.6274 24 12C24 5.37258 18.6274 0 12 0C5.37258 0 0 5.37258 0 12C0 18.6274 5.37258 24 12 24Z"
                fill="#2B2B2B" />
            <path
                d="M12.6127 16.2801C7.92553 16.2801 5.25203 13.0667 5.14062 7.71973H7.4885C7.56562 11.6443 9.2965 13.3067 10.6675 13.6494V7.71973H12.8784V11.1045C14.2323 10.9588 15.6546 9.41637 16.1344 7.71973H18.3452C17.9768 9.81054 16.4344 11.353 15.3375 11.9871C16.4344 12.5012 18.1911 13.8465 18.8595 16.2801H16.4258C15.9031 14.652 14.6007 13.3924 12.8784 13.221V16.2801H12.6127Z"
                fill="#F6F6F6" />
        </g>
    </g>
    <defs>
        <clipPath id="clip0_212_1770">
            <rect width="24" height="24" fill="white" />
        </clipPath>
    </defs>
</svg>