<svg width="418" height="435" viewBox="0 0 418 435" fill="none" xmlns="http://www.w3.org/2000/svg">
<path d="M208.865 292.733C167.341 292.733 133.549 258.941 133.549 217.417C133.549 175.893 167.341 142.101 208.865 142.101C250.389 142.101 284.181 175.893 284.181 217.417C284.161 258.941 250.389 292.733 208.865 292.733ZM208.865 158.357C176.291 158.357 149.785 184.863 149.785 217.437C149.785 250.011 176.291 276.517 208.865 276.517C241.439 276.517 267.945 250.011 267.945 217.437C267.945 184.863 241.439 158.357 208.865 158.357Z" fill="#282828"/>
<path d="M208.862 337.32C197.842 337.32 187.167 335.797 177.039 333.017L163.076 371.882C168.901 373.973 174.807 375.657 180.855 376.936L186.659 424.022C187.431 430.537 192.91 435.164 199.283 434.798L248.682 432.485C255.055 432.099 260.088 426.782 260.494 420.693L261.448 373.365C273.077 369.529 284.341 364.211 294.692 357.676L331.812 387.044C336.764 390.595 344.071 390.108 348.434 385.44L381.637 348.807C385.98 344.139 386.021 336.569 381.353 332.226L348.576 298.19C351.499 292.548 353.975 286.865 356.045 281.101C356.045 281.081 356.065 281.061 356.065 281.061L317.869 267.341C298.934 308.622 257.267 337.32 208.862 337.32Z" fill="#282828"/>
<path d="M88.9542 217.419C88.9542 210.113 89.6442 202.948 90.9025 196.007L56.6032 183.688C54.7564 188.863 53.2343 194.181 52.118 199.519L9.7209 204.755C3.85553 205.465 -0.325134 210.376 0.0198877 216.12L2.11013 260.588C2.45515 266.331 7.24482 270.857 12.7246 271.222L55.3449 272.075C58.7952 282.547 63.5849 292.695 69.8156 302.132L43.3708 335.559C39.6771 340.247 40.1235 346.823 44.8117 350.517L77.7918 380.412C81.9929 384.329 88.8121 384.369 92.7292 380.168L123.375 350.658C128.327 353.216 133.3 355.407 138.374 357.254C138.455 357.295 138.556 357.315 138.637 357.336L151.139 322.529C114.06 302.132 88.9542 262.719 88.9542 217.419Z" fill="#282828"/>
<path d="M415.87 175.773C415.525 169.928 410.756 164.955 405.053 164.935L361.641 164.062C358.109 153.387 353.238 143.056 346.886 133.416L373.838 99.3607C377.593 94.5913 377.005 88.2388 372.357 84.1188L338.748 53.6554C334.465 49.6572 327.524 49.6164 323.526 53.919L292.291 83.9766C287.157 81.3179 282.002 79.0649 276.745 77.1775L264.527 111.213C302.703 131.265 328.762 171.287 328.762 217.419C328.762 225.801 327.89 234 326.246 241.895L360.342 254.133C362.229 248.857 363.752 243.498 364.908 237.998L408.097 232.661C414.084 231.95 418.326 226.938 417.981 221.092L415.87 175.773Z" fill="#282828"/>
<path d="M208.86 97.5133C220.144 97.5133 231.042 99.0962 241.393 102.019L255.113 63.8232C255.072 63.8029 255.011 63.7825 254.971 63.7622C249.126 61.6515 243.179 59.9873 237.091 58.6884L231.205 10.9535C230.413 4.33725 224.873 -0.351251 218.419 0.0343616L168.35 2.36863C161.896 2.75424 156.782 8.1526 156.376 14.3224L155.402 62.301C143.61 66.1977 132.184 71.5757 121.691 78.192L84.0428 48.4188C78.766 44.2582 71.7439 44.9078 67.1978 50.0425L33.5275 87.1832C29.1234 91.9323 29.0829 99.5833 33.8117 104.008L67.0352 138.53C64.1533 144.051 61.6368 149.795 59.5057 155.701C59.4854 155.761 59.4651 155.842 59.4448 155.903L98.7164 170.008C117.063 127.388 159.461 97.5133 208.86 97.5133Z" fill="#FF0000"/>
</svg>
