<svg width="299" height="299" viewBox="0 0 299 299" fill="none" xmlns="http://www.w3.org/2000/svg">
    <path
        d="M149.5 299C67.0652 299 0 231.935 0 149.5C0 67.0652 67.0652 0 149.5 0C231.935 0 299 67.0652 299 149.5C299 231.935 231.935 299 149.5 299ZM149.5 14.2381C74.9171 14.2381 14.2381 74.9171 14.2381 149.5C14.2381 224.083 74.9171 284.762 149.5 284.762C224.083 284.762 284.762 224.083 284.762 149.5C284.762 74.9171 224.083 14.2381 149.5 14.2381Z"
        fill="#2F2F2F" />
    <path
        d="M102.043 135.261C112.527 135.261 121.027 126.762 121.027 116.277C121.027 105.793 112.527 97.2932 102.043 97.2932C91.5581 97.2932 83.0586 105.793 83.0586 116.277C83.0586 126.762 91.5581 135.261 102.043 135.261Z"
        fill="#2F2F2F" />
    <path
        d="M196.965 135.261C207.449 135.261 215.949 126.762 215.949 116.277C215.949 105.793 207.449 97.2932 196.965 97.2932C186.48 97.2932 177.98 105.793 177.98 116.277C177.98 126.762 186.48 135.261 196.965 135.261Z"
        fill="#2F2F2F" />
    <path
        d="M196.969 218.317C194.419 218.317 191.964 216.954 190.675 214.544C182.546 199.305 166.768 189.841 149.499 189.841C132.23 189.841 116.453 199.306 108.323 214.544C106.47 218.02 102.169 219.327 98.6927 217.483C95.2167 215.629 93.9097 211.319 95.754 207.852C106.368 187.96 126.955 175.603 149.499 175.603C172.043 175.603 192.63 187.96 203.244 207.852C205.088 211.319 203.781 215.629 200.305 217.483C199.239 218.049 198.1 218.317 196.969 218.317Z"
        fill="#2F2F2F" />
</svg>