<svg width="274" height="57" viewBox="0 0 274 57" fill="none" xmlns="http://www.w3.org/2000/svg">
<g clip-path="url(#clip0_147_2558)">
<path d="M94.5895 32.1107H86.0241V28.4473H88.2577V18.2983L82.8887 32.108H79.6922L74.2596 18.3275V28.4447H76.4932V32.108H67.9277V28.4447H70.1613V14.9746H67.9277V11.3112H75.8724L81.2732 25.3093L86.7059 11.3112H94.5895V14.9746H92.356V28.4447H94.5895V32.1107Z" fill="#FF0000"/>
<path d="M114.855 32.1109H108.833V30.4344C108.42 31.0127 107.778 31.5008 106.91 31.8934C106.04 32.286 105.202 32.4823 104.396 32.4823C103.236 32.4823 102.157 32.2701 101.151 31.8456C100.149 31.4212 99.268 30.8377 98.512 30.0923C97.756 29.3469 97.1618 28.4794 96.7268 27.4847C96.2917 26.4926 96.0742 25.4369 96.0742 24.3201C96.0742 23.2033 96.2917 22.1475 96.7268 21.1554C97.1618 20.1634 97.756 19.2933 98.512 18.5479C99.268 17.8025 100.146 17.2189 101.151 16.7945C102.154 16.3701 103.236 16.1579 104.396 16.1579C105.223 16.1579 106.077 16.3648 106.955 16.7786C107.833 17.1924 108.523 17.7097 109.019 18.3304V16.5292H114.855V20.1926H112.932V28.4476H114.855V32.1109ZM108.833 24.3201C108.833 23.7206 108.725 23.1556 108.507 22.6277C108.29 22.0998 107.985 21.6462 107.592 21.2616C107.199 20.8796 106.743 20.5746 106.226 20.3464C105.709 20.1183 105.16 20.0042 104.581 20.0042C104.003 20.0042 103.449 20.1183 102.921 20.3464C102.393 20.5746 101.937 20.8796 101.555 21.2616C101.173 21.6436 100.868 22.0998 100.639 22.6277C100.411 23.1556 100.297 23.7206 100.297 24.3201C100.297 24.9196 100.411 25.4846 100.639 26.0125C100.868 26.5403 101.173 26.9966 101.555 27.3786C101.937 27.7606 102.393 28.0656 102.921 28.2938C103.449 28.5219 104 28.636 104.581 28.636C105.16 28.636 105.709 28.5219 106.226 28.2938C106.743 28.0656 107.199 27.7606 107.592 27.3786C107.985 26.9966 108.29 26.5403 108.507 26.0125C108.725 25.4846 108.833 24.9223 108.833 24.3201Z" fill="#FF0000"/>
<path d="M132.764 26.4926C132.536 27.3202 132.154 28.0975 131.615 28.819C131.077 29.5432 130.44 30.1798 129.705 30.7289C128.971 31.278 128.169 31.7077 127.299 32.0181C126.429 32.3285 125.562 32.4823 124.692 32.4823C123.511 32.4823 122.411 32.2701 121.387 31.8456C120.363 31.4212 119.464 30.8377 118.686 30.0923C117.912 29.3469 117.299 28.4794 116.856 27.4847C116.41 26.4926 116.188 25.4369 116.188 24.3201C116.188 23.2033 116.4 22.1475 116.824 21.1554C117.249 20.1634 117.827 19.2933 118.562 18.5479C119.296 17.8025 120.151 17.2189 121.121 16.7945C122.095 16.3701 123.137 16.1579 124.257 16.1579C125.106 16.1579 125.96 16.333 126.817 16.6858C127.676 17.0386 128.302 17.4736 128.695 17.9882V16.5292H132.048V21.6807H128.541C128.148 21.1634 127.61 20.7549 126.928 20.4552C126.246 20.1554 125.533 20.0042 124.787 20.0042C123.567 20.0042 122.533 20.4234 121.684 21.2616C120.835 22.0998 120.411 23.1185 120.411 24.3174C120.411 24.9169 120.525 25.4819 120.753 26.0098C120.981 26.5377 121.291 26.994 121.684 27.376C122.076 27.7579 122.538 28.063 123.066 28.2911C123.594 28.5192 124.167 28.6333 124.787 28.6333C125.551 28.6333 126.297 28.4317 127.021 28.0285C127.745 27.6253 128.262 27.1133 128.573 26.4926H132.764Z" fill="#FF0000"/>
<path d="M136.022 28.447V14.9769H134.098V11.3136H140.12V18.0486C140.555 17.4889 141.186 17.0354 142.014 16.6826C142.842 16.3298 143.659 16.1547 144.465 16.1547C145.293 16.1547 146.072 16.3164 146.807 16.6374C147.542 16.9584 148.184 17.3935 148.73 17.9452C149.279 18.4943 149.709 19.1442 150.02 19.8896C150.33 20.635 150.484 21.4334 150.484 22.2849V28.4444H152.407V32.1077H144.462V28.4444H146.385V22.9614C146.385 22.1311 146.086 21.4308 145.486 20.8578C144.887 20.2875 144.163 20.001 143.314 20.001C142.425 20.001 141.669 20.2875 141.048 20.8578C140.428 21.4281 140.117 22.1311 140.117 22.9614V28.4444H142.04V32.1077H134.096V28.4444H136.022V28.447Z" fill="#FF0000"/>
<path d="M155.792 28.4473V20.1922H153.869V16.5289H159.891V28.4473H161.814V32.1106H153.869V28.4473H155.792ZM159.891 15.2265H155.795V11.3165H159.891V15.2265Z" fill="#FF0000"/>
<path d="M181.519 32.1109H173.635V28.4476H175.559V22.9858C175.559 22.1582 175.259 21.4552 174.659 20.8743C174.06 20.296 173.336 20.0042 172.487 20.0042C171.598 20.0042 170.842 20.2934 170.221 20.8743C169.601 21.4526 169.29 22.1582 169.29 22.9858V28.4476H171.153V32.1109H163.301V28.4476H165.195V20.1926H163.271V16.5292H169.107V18.3304C169.625 17.8131 170.317 17.3224 171.187 16.8555C172.057 16.3886 172.874 16.1579 173.638 16.1579C174.466 16.1579 175.246 16.3197 175.98 16.638C176.715 16.9589 177.357 17.3993 177.903 17.9564C178.453 18.5161 178.882 19.166 179.193 19.9114C179.503 20.6568 179.657 21.4526 179.657 22.3014V28.4476H181.519V32.1109Z" fill="#FF0000"/>
<path d="M191.358 28.6351C191.958 28.6351 192.528 28.5104 193.064 28.2637C193.602 28.0143 194.066 27.6854 194.459 27.2716H199.271C198.961 28.0382 198.531 28.7359 197.982 29.3672C197.433 29.9985 196.807 30.5476 196.104 31.0118C195.401 31.476 194.629 31.8394 193.791 32.0967C192.952 32.354 192.077 32.4841 191.167 32.4841C190.008 32.4841 188.928 32.2718 187.923 31.8474C186.92 31.423 186.04 30.8394 185.284 30.094C184.528 29.3486 183.933 28.4812 183.498 27.4864C183.063 26.4944 182.846 25.4386 182.846 24.3219C182.846 23.2051 183.063 22.1493 183.498 21.1572C183.933 20.1651 184.528 19.2951 185.284 18.5497C186.04 17.8043 186.918 17.2207 187.923 16.7962C188.926 16.3718 190.008 16.1596 191.167 16.1596C192.366 16.1596 193.493 16.3718 194.549 16.7962C195.605 17.2207 196.525 17.8043 197.311 18.5497C198.096 19.2951 198.717 20.1624 199.173 21.1572C199.626 22.1493 199.855 23.2051 199.855 24.3219C199.855 24.7569 199.801 25.2317 199.701 25.7489H187.318C187.607 26.5978 188.119 27.2902 188.854 27.8286C189.594 28.3645 190.427 28.6351 191.358 28.6351ZM191.358 20.006C190.509 20.006 189.74 20.2394 189.045 20.7036C188.353 21.1678 187.83 21.7753 187.477 22.518H195.236C194.883 21.7726 194.361 21.1678 193.669 20.7036C192.976 20.2394 192.207 20.006 191.358 20.006Z" fill="#FF0000"/>
<path d="M215.44 26.0596C215.44 27.0119 215.281 27.8794 214.96 28.6672C214.639 29.4524 214.185 30.1314 213.594 30.6991C213.005 31.2694 212.294 31.7072 211.469 32.0175C210.641 32.3279 209.71 32.4817 208.676 32.4817C208.159 32.4817 207.527 32.3411 206.782 32.0626C206.036 31.7841 205.448 31.4047 205.013 30.9299V32.1103H201.474V25.6856H205.291C205.291 26.5132 205.57 27.1711 206.129 27.6565C206.689 28.142 207.36 28.386 208.148 28.386C208.912 28.386 209.575 28.1897 210.135 27.7971C210.695 27.4045 210.973 26.9377 210.973 26.4018C210.973 25.7811 210.819 25.2957 210.509 24.9429C210.198 24.5901 209.79 24.2957 209.283 24.0596C208.777 23.8208 208.19 23.6086 207.53 23.4229C206.867 23.2372 206.196 22.9985 205.514 22.7094C204.294 22.1709 203.28 21.4414 202.471 20.5209C201.665 19.6004 201.262 18.4465 201.262 17.0592C201.262 16.1891 201.426 15.3827 201.758 14.6374C202.089 13.892 202.532 13.2473 203.092 12.6982C203.652 12.1491 204.307 11.7194 205.063 11.409C205.819 11.0987 206.631 10.9448 207.498 10.9448C208.45 10.9448 209.236 11.1146 209.856 11.4568C210.477 11.799 210.931 12.1438 211.222 12.4966V11.3162H214.668V17.1812H210.634C210.634 16.4358 210.344 15.8416 209.763 15.396C209.185 14.9503 208.583 14.7275 207.962 14.7275C207.32 14.7275 206.763 14.945 206.286 15.38C205.811 15.8151 205.572 16.3642 205.572 17.0247C205.572 17.603 205.742 18.0592 206.084 18.3908C206.426 18.7224 206.869 18.9957 207.419 19.2132C207.968 19.4307 208.572 19.627 209.233 19.8021C209.896 19.9771 210.546 20.2105 211.188 20.4997C212.347 21.0382 213.345 21.773 214.183 22.704C215.021 23.6378 215.44 24.7545 215.44 26.0596Z" fill="white"/>
<path d="M225.497 20.192H222.982V28.447H224.845V32.1104H218.887V20.192H216.746V16.5287H218.887V11.3136H222.982V16.5287H225.497V20.192Z" fill="white"/>
<path d="M235.243 32.4823C234.084 32.4823 233.004 32.2701 231.999 31.8456C230.996 31.4212 230.116 30.8377 229.36 30.0923C228.604 29.3469 228.009 28.4794 227.574 27.4847C227.139 26.4926 226.922 25.4369 226.922 24.3201C226.922 23.2033 227.139 22.1475 227.574 21.1554C228.009 20.1634 228.604 19.2933 229.36 18.5479C230.116 17.8025 230.994 17.2189 231.999 16.7945C233.002 16.3701 234.084 16.1579 235.243 16.1579C236.442 16.1579 237.57 16.3701 238.625 16.7945C239.681 17.2189 240.602 17.8025 241.387 18.5479C242.172 19.2933 242.793 20.1607 243.249 21.1554C243.703 22.1475 243.931 23.2033 243.931 24.3201C243.931 25.4369 243.703 26.4926 243.249 27.4847C242.793 28.4768 242.172 29.3469 241.387 30.0923C240.599 30.8377 239.678 31.4212 238.625 31.8456C237.57 32.2701 236.442 32.4823 235.243 32.4823ZM239.713 24.3201C239.713 23.7206 239.599 23.1556 239.371 22.6277C239.143 22.0998 238.838 21.6462 238.456 21.2616C238.074 20.8796 237.617 20.5746 237.089 20.3464C236.562 20.1183 236.007 20.0042 235.429 20.0042C234.851 20.0042 234.296 20.1183 233.768 20.3464C233.24 20.5746 232.784 20.8796 232.402 21.2616C232.02 21.6436 231.715 22.0998 231.487 22.6277C231.259 23.1556 231.145 23.7206 231.145 24.3201C231.145 24.9196 231.259 25.4846 231.487 26.0125C231.715 26.5403 232.02 26.9966 232.402 27.3786C232.784 27.7606 233.24 28.0656 233.768 28.2938C234.296 28.5219 234.851 28.636 235.429 28.636C236.007 28.636 236.562 28.5219 237.089 28.2938C237.617 28.0656 238.071 27.7606 238.456 27.3786C238.838 26.9966 239.143 26.5403 239.371 26.0125C239.599 25.4846 239.713 24.9223 239.713 24.3201Z" fill="white"/>
<path d="M247.316 28.4476V20.1926H245.393V16.5292H251.228V18.3304C251.581 17.7919 252.117 17.2958 252.841 16.8396C253.565 16.386 254.29 16.1579 255.014 16.1579H255.759V20.0069H255.014C254.022 20.0069 253.173 20.4048 252.47 21.2006C251.767 21.9964 251.414 22.9539 251.414 24.0707V28.4476H253.337V32.1109H245.393V28.4476H247.316Z" fill="white"/>
<path d="M265.317 28.6351C265.917 28.6351 266.487 28.5104 267.023 28.2637C267.561 28.0143 268.025 27.6854 268.418 27.2716H273.23C272.92 28.0382 272.49 28.7359 271.941 29.3672C271.392 29.9985 270.766 30.5476 270.063 31.0118C269.36 31.476 268.588 31.8394 267.75 32.0967C266.911 32.354 266.036 32.4841 265.126 32.4841C263.967 32.4841 262.887 32.2718 261.882 31.8474C260.879 31.423 259.998 30.8394 259.242 30.094C258.486 29.3486 257.892 28.4812 257.457 27.4864C257.022 26.4944 256.805 25.4386 256.805 24.3219C256.805 23.2051 257.022 22.1493 257.457 21.1572C257.892 20.1651 258.486 19.2951 259.242 18.5497C259.998 17.8043 260.877 17.2207 261.882 16.7962C262.885 16.3718 263.967 16.1596 265.126 16.1596C266.325 16.1596 267.452 16.3718 268.508 16.7962C269.564 17.2207 270.484 17.8043 271.27 18.5497C272.055 19.2951 272.675 20.1624 273.132 21.1572C273.585 22.1493 273.813 23.2051 273.813 24.3219C273.813 24.7569 273.76 25.2317 273.66 25.7489H261.277C261.566 26.5978 262.078 27.2902 262.813 27.8286C263.553 28.3645 264.386 28.6351 265.317 28.6351ZM265.317 20.006C264.468 20.006 263.699 20.2394 263.004 20.7036C262.312 21.1678 261.789 21.7753 261.436 22.518H269.195C268.842 21.7726 268.32 21.1678 267.627 20.7036C266.935 20.2394 266.166 20.006 265.317 20.006Z" fill="white"/>
<path d="M70.6209 47.639C70.0108 47.639 69.4856 47.4958 69.0452 47.2067C68.6049 46.9176 68.2654 46.5222 68.0293 46.0156C67.7905 45.5089 67.6738 44.9334 67.6738 44.2808C67.6738 43.6203 67.7959 43.034 68.0399 42.5274C68.2839 42.0207 68.6261 41.6228 69.0665 41.3363C69.5068 41.0499 70.0188 40.9066 70.6076 40.9066C71.0666 40.9066 71.4777 40.9915 71.8464 41.1613C72.2152 41.3311 72.5149 41.5671 72.7484 41.8722C72.9818 42.1772 73.1277 42.5327 73.186 42.9412H72.186C72.1091 42.6441 71.9419 42.3815 71.6793 42.1507C71.4167 41.9199 71.0666 41.8059 70.6262 41.8059C70.2363 41.8059 69.8941 41.9066 69.6023 42.1082C69.3105 42.3098 69.0824 42.5937 68.9206 42.9598C68.7587 43.3259 68.6765 43.7556 68.6765 44.2463C68.6765 44.7503 68.7561 45.188 68.9153 45.5593C69.0744 45.9334 69.2999 46.2225 69.5943 46.4294C69.8888 46.6363 70.231 46.7398 70.6262 46.7398C70.8862 46.7398 71.1223 46.6947 71.3345 46.6045C71.5467 46.5143 71.7271 46.3843 71.873 46.2145C72.0189 46.0448 72.125 45.8406 72.186 45.6045H73.186C73.1303 45.9891 72.9897 46.3339 72.7696 46.6416C72.5467 46.9494 72.2549 47.1907 71.8915 47.3711C71.5228 47.5489 71.101 47.639 70.6209 47.639Z" fill="white"/>
<path d="M75.2848 49.9445C75.115 49.9445 74.9638 49.9313 74.8312 49.9047C74.6985 49.8782 74.6057 49.8517 74.5553 49.8251L74.8099 48.9444C75.054 49.0054 75.2688 49.0293 75.4545 49.0108C75.6402 48.9948 75.8073 48.91 75.9532 48.7641C76.0991 48.6182 76.2318 48.3768 76.3538 48.0452L76.5395 47.5359L74.1309 40.9918H75.2158L77.0143 46.1804H77.0833L78.8818 40.9918H79.9667L77.2026 48.4511C77.0779 48.788 76.9241 49.0665 76.7411 49.2893C76.558 49.5121 76.3458 49.6766 76.1044 49.7827C75.8604 49.8915 75.5872 49.9445 75.2848 49.9445Z" fill="white"/>
<path d="M81.2871 47.5011V40.9889H86.4067V47.5011H85.4067V41.9226H82.2872V47.5011H81.2871Z" fill="white"/>
<path d="M90.9702 47.639C90.3441 47.639 89.803 47.4984 89.3494 47.2225C88.8958 46.944 88.5457 46.5541 88.3016 46.0527C88.0576 45.5514 87.9355 44.9678 87.9355 44.2993C87.9355 43.6335 88.0576 43.0446 88.3016 42.5327C88.5457 42.0233 88.8878 41.6228 89.3282 41.3363C89.7685 41.0498 90.2805 40.9066 90.8694 40.9066C91.2089 40.9066 91.5431 40.9623 91.8747 41.0763C92.2063 41.1904 92.5061 41.3735 92.7766 41.6255C93.0472 41.8775 93.2647 42.2117 93.4265 42.6282C93.5883 43.0446 93.6679 43.5539 93.6679 44.1614V44.5858H88.6491V43.721H92.6493C92.6493 43.355 92.5777 43.0261 92.4318 42.7369C92.2859 42.4478 92.079 42.2223 91.8137 42.0552C91.5485 41.888 91.2328 41.8058 90.8694 41.8058C90.4715 41.8058 90.1266 41.904 89.8375 42.1003C89.5483 42.2966 89.3255 42.5512 89.169 42.8642C89.0125 43.1772 88.9356 43.5141 88.9356 43.8723V44.4479C88.9356 44.9386 89.0205 45.3551 89.1929 45.6972C89.3627 46.0368 89.6014 46.2968 89.9064 46.4719C90.2115 46.6469 90.567 46.7371 90.9702 46.7371C91.2328 46.7371 91.4715 46.6999 91.6837 46.6257C91.896 46.5514 92.0816 46.4373 92.2381 46.2861C92.3946 46.1349 92.514 45.9466 92.5989 45.7211L93.5645 45.9917C93.4637 46.3206 93.2912 46.6071 93.0525 46.8538C92.8111 47.1005 92.5167 47.2942 92.1612 47.4294C91.8084 47.57 91.4105 47.639 90.9702 47.639Z" fill="white"/>
<path d="M95.1895 49.9441V40.9914H96.155V42.026H96.2744C96.3487 41.912 96.4495 41.7687 96.5821 41.5909C96.7147 41.4132 96.9031 41.2567 97.1498 41.1161C97.3965 40.9755 97.7333 40.9066 98.1578 40.9066C98.7069 40.9066 99.1897 41.0445 99.6088 41.3177C100.028 41.5909 100.354 41.9809 100.588 42.4823C100.821 42.9863 100.94 43.5778 100.94 44.2622C100.94 44.9519 100.824 45.5487 100.588 46.0527C100.352 46.5567 100.028 46.9466 99.6114 47.2225C99.1949 47.4984 98.7175 47.6364 98.1737 47.6364C97.7546 47.6364 97.4203 47.5674 97.1683 47.4268C96.9163 47.2862 96.7227 47.127 96.5874 46.9466C96.4521 46.7663 96.346 46.6177 96.2744 46.4984H96.1895V49.9415H95.1895V49.9441ZM96.1736 44.2463C96.1736 44.737 96.2452 45.1721 96.3885 45.5461C96.5317 45.9201 96.7439 46.2119 97.0198 46.4241C97.2957 46.6336 97.6352 46.7398 98.0384 46.7398C98.4575 46.7398 98.8077 46.6284 99.0888 46.4082C99.37 46.1854 99.5822 45.8856 99.7255 45.5089C99.8687 45.1322 99.9404 44.7105 99.9404 44.2489C99.9404 43.79 99.8714 43.3789 99.7308 43.0101C99.5902 42.6414 99.3806 42.3496 99.0995 42.1321C98.8183 41.9172 98.4655 41.8085 98.0411 41.8085C97.6352 41.8085 97.293 41.9119 97.0145 42.1162C96.7386 42.3204 96.529 42.6069 96.3858 42.973C96.2426 43.339 96.1736 43.7608 96.1736 44.2463Z" fill="white"/>
<path d="M103.467 40.9915V47.5038H102.467V40.9915H103.467ZM106.027 46.1457L108.3 40.9915H109.25L106.435 47.5038H105.621L102.857 40.9915H103.79L106.027 46.1457ZM108.586 47.5011V40.9889H109.587V47.5011H108.586Z" fill="white"/>
<path d="M113.334 47.6553C112.92 47.6553 112.546 47.5756 112.211 47.4191C111.875 47.2626 111.609 47.0345 111.41 46.7375C111.211 46.4404 111.113 46.0796 111.113 45.6551C111.113 45.2811 111.188 44.9787 111.333 44.7453C111.479 44.5119 111.676 44.3288 111.922 44.1962C112.169 44.0636 112.44 43.9627 112.739 43.8964C113.036 43.8301 113.339 43.7771 113.641 43.7373C114.036 43.6869 114.357 43.6471 114.607 43.6206C114.853 43.5941 115.034 43.549 115.151 43.4826C115.265 43.4163 115.323 43.3049 115.323 43.1431V43.1086C115.323 42.6895 115.209 42.3659 114.981 42.1351C114.753 41.9043 114.411 41.7876 113.949 41.7876C113.471 41.7876 113.097 41.8911 112.827 42.1006C112.556 42.3102 112.365 42.5329 112.254 42.769L111.304 42.4295C111.474 42.0343 111.699 41.7239 111.983 41.5038C112.267 41.281 112.578 41.1271 112.917 41.0369C113.254 40.9467 113.588 40.9043 113.914 40.9043C114.124 40.9043 114.365 40.9281 114.636 40.9785C114.909 41.0289 115.172 41.1297 115.429 41.2809C115.684 41.4348 115.899 41.6629 116.066 41.9706C116.233 42.2783 116.32 42.6921 116.32 43.2094V47.4987H115.32V46.618H115.27C115.201 46.7586 115.09 46.9099 114.93 47.0717C114.771 47.2335 114.562 47.3687 114.299 47.4828C114.031 47.5995 113.71 47.6553 113.334 47.6553ZM113.485 46.756C113.88 46.756 114.214 46.6791 114.487 46.5226C114.761 46.3661 114.968 46.1671 115.106 45.9204C115.243 45.6737 115.315 45.4164 115.315 45.1459V44.2306C115.273 44.281 115.18 44.3288 115.037 44.3686C114.893 44.4084 114.729 44.4456 114.546 44.4747C114.36 44.5039 114.182 44.5304 114.007 44.5517C113.832 44.5729 113.692 44.5914 113.586 44.6047C113.326 44.6392 113.084 44.6922 112.859 44.7691C112.633 44.8434 112.453 44.9548 112.315 45.1034C112.177 45.2519 112.108 45.4535 112.108 45.7082C112.108 46.0557 112.238 46.3183 112.495 46.4934C112.758 46.6684 113.087 46.756 113.485 46.756Z" fill="white"/>
<path d="M118.148 49.9441V40.9914H119.114V42.026H119.233C119.308 41.912 119.408 41.7687 119.541 41.5909C119.674 41.4132 119.862 41.2567 120.109 41.1161C120.355 40.9755 120.692 40.9066 121.117 40.9066C121.666 40.9066 122.149 41.0445 122.568 41.3177C122.987 41.5909 123.313 41.9809 123.547 42.4823C123.78 42.9863 123.899 43.5778 123.899 44.2622C123.899 44.9519 123.783 45.5487 123.547 46.0527C123.311 46.5567 122.987 46.9466 122.57 47.2225C122.154 47.4984 121.676 47.6364 121.133 47.6364C120.714 47.6364 120.379 47.5674 120.127 47.4268C119.875 47.2862 119.682 47.127 119.546 46.9466C119.411 46.7663 119.305 46.6177 119.233 46.4984H119.148V49.9415H118.148V49.9441ZM119.133 44.2463C119.133 44.737 119.204 45.1721 119.347 45.5461C119.491 45.9201 119.703 46.2119 119.979 46.4241C120.255 46.6336 120.594 46.7398 120.997 46.7398C121.417 46.7398 121.767 46.6284 122.048 46.4082C122.329 46.1854 122.541 45.8856 122.684 45.5089C122.828 45.1322 122.899 44.7105 122.899 44.2489C122.899 43.79 122.83 43.3789 122.69 43.0101C122.549 42.6414 122.34 42.3496 122.058 42.1321C121.777 41.9172 121.424 41.8085 121 41.8085C120.594 41.8085 120.252 41.9119 119.973 42.1162C119.698 42.3204 119.488 42.6069 119.345 42.973C119.202 43.339 119.133 43.7608 119.133 44.2463Z" fill="white"/>
<path d="M125.422 47.5011V40.9889H126.422V43.8193H127.082L129.422 40.9889H130.711L128.082 44.127L130.746 47.5011H129.457L127.321 44.753H126.422V47.5011H125.422Z" fill="white"/>
<path d="M134.291 47.639C133.664 47.639 133.123 47.4984 132.67 47.2225C132.216 46.944 131.866 46.5541 131.622 46.0527C131.378 45.5514 131.256 44.9678 131.256 44.2993C131.256 43.6335 131.378 43.0446 131.622 42.5327C131.866 42.0233 132.208 41.6228 132.649 41.3363C133.089 41.0498 133.601 40.9066 134.19 40.9066C134.529 40.9066 134.863 40.9623 135.195 41.0763C135.527 41.1904 135.826 41.3735 136.097 41.6255C136.368 41.8775 136.585 42.2117 136.747 42.6282C136.909 43.0446 136.988 43.5539 136.988 44.1614V44.5858H131.969V43.721H135.97C135.97 43.355 135.898 43.0261 135.752 42.7369C135.606 42.4478 135.399 42.2223 135.134 42.0552C134.869 41.888 134.553 41.8058 134.19 41.8058C133.792 41.8058 133.447 41.904 133.158 42.1003C132.869 42.2966 132.646 42.5512 132.489 42.8642C132.333 43.1772 132.256 43.5141 132.256 43.8723V44.4479C132.256 44.9386 132.341 45.3551 132.513 45.6972C132.683 46.0368 132.922 46.2968 133.227 46.4719C133.532 46.6469 133.887 46.7371 134.291 46.7371C134.553 46.7371 134.792 46.6999 135.004 46.6257C135.216 46.5514 135.402 46.4373 135.558 46.2861C135.715 46.1349 135.834 45.9466 135.919 45.7211L136.885 45.9917C136.784 46.3206 136.612 46.6071 136.373 46.8538C136.131 47.1005 135.837 47.2942 135.482 47.4294C135.129 47.57 134.734 47.639 134.291 47.639Z" fill="white"/>
<path d="M137.902 41.9226V40.9889H143.192V41.9226H141.056V47.5011H140.056V41.9226H137.902Z" fill="white"/>
<path d="M149.01 40.9915V47.5038H148.01V40.9915H149.01ZM151.57 46.1457L153.843 40.9915H154.793L151.978 47.5038H151.164L148.4 40.9915H149.333L151.57 46.1457ZM154.129 47.5011V40.9889H155.129V47.5011H154.129Z" fill="white"/>
<path d="M159.691 47.639C159.065 47.639 158.524 47.4984 158.07 47.2225C157.616 46.944 157.266 46.5541 157.022 46.0527C156.778 45.5514 156.656 44.9678 156.656 44.2993C156.656 43.6335 156.778 43.0446 157.022 42.5327C157.266 42.0233 157.609 41.6228 158.049 41.3363C158.489 41.0498 159.001 40.9066 159.59 40.9066C159.93 40.9066 160.264 40.9623 160.595 41.0763C160.927 41.1904 161.227 41.3735 161.497 41.6255C161.768 41.8775 161.985 42.2117 162.147 42.6282C162.309 43.0446 162.389 43.5539 162.389 44.1614V44.5858H157.37V43.721H161.37C161.37 43.355 161.298 43.0261 161.152 42.7369C161.007 42.4478 160.8 42.2223 160.534 42.0552C160.269 41.888 159.954 41.8058 159.59 41.8058C159.192 41.8058 158.847 41.904 158.558 42.1003C158.269 42.2966 158.046 42.5512 157.89 42.8642C157.733 43.1772 157.656 43.5141 157.656 43.8723V44.4479C157.656 44.9386 157.741 45.3551 157.914 45.6972C158.083 46.0368 158.322 46.2968 158.627 46.4719C158.932 46.6469 159.288 46.7371 159.691 46.7371C159.954 46.7371 160.192 46.6999 160.404 46.6257C160.617 46.5514 160.802 46.4373 160.959 46.2861C161.115 46.1349 161.235 45.9466 161.32 45.7211L162.285 45.9917C162.184 46.3206 162.012 46.6071 161.773 46.8538C161.532 47.1005 161.237 47.2942 160.882 47.4294C160.526 47.57 160.131 47.639 159.691 47.639Z" fill="white"/>
<path d="M164.49 40.9918L166.05 43.6551L167.609 40.9918H168.763L166.66 44.2466L168.763 47.5014H167.609L166.05 44.9761L164.49 47.5014H163.336L165.405 44.2466L163.336 40.9918H164.49Z" fill="white"/>
<path d="M172.103 47.6553C171.689 47.6553 171.315 47.5757 170.981 47.4191C170.644 47.2626 170.379 47.0346 170.18 46.7375C169.981 46.4404 169.883 46.0796 169.883 45.6552C169.883 45.2811 169.957 44.9787 170.103 44.7453C170.249 44.5119 170.445 44.3288 170.692 44.1962C170.939 44.0636 171.209 43.9627 171.509 43.8964C171.806 43.8301 172.108 43.7771 172.411 43.7373C172.806 43.6869 173.127 43.6471 173.376 43.6206C173.623 43.5941 173.803 43.549 173.92 43.4827C174.034 43.4163 174.093 43.3049 174.093 43.1431V43.1086C174.093 42.6895 173.979 42.3659 173.75 42.1351C173.522 41.9043 173.18 41.7876 172.719 41.7876C172.241 41.7876 171.867 41.8911 171.596 42.1006C171.326 42.3102 171.135 42.533 171.023 42.769L170.074 42.4296C170.244 42.0343 170.469 41.724 170.753 41.5038C171.037 41.281 171.347 41.1271 171.687 41.0369C172.024 40.9467 172.358 40.9043 172.684 40.9043C172.894 40.9043 173.135 40.9281 173.406 40.9785C173.679 41.0289 173.941 41.1297 174.199 41.2809C174.453 41.4348 174.668 41.6629 174.835 41.9706C175.002 42.2783 175.09 42.6922 175.09 43.2094V47.4987H174.09V46.618H174.04C173.971 46.7586 173.859 46.9099 173.7 47.0717C173.541 47.2335 173.331 47.3687 173.069 47.4828C172.801 47.5995 172.48 47.6553 172.103 47.6553ZM172.254 46.756C172.65 46.756 172.984 46.6791 173.257 46.5226C173.53 46.3661 173.737 46.1671 173.875 45.9204C174.013 45.6737 174.085 45.4164 174.085 45.1459V44.2307C174.042 44.2811 173.949 44.3288 173.806 44.3686C173.663 44.4084 173.498 44.4456 173.315 44.4747C173.13 44.5039 172.952 44.5305 172.777 44.5517C172.602 44.5729 172.461 44.5915 172.355 44.6047C172.095 44.6392 171.854 44.6922 171.628 44.7691C171.403 44.8434 171.222 44.9548 171.084 45.1034C170.947 45.2519 170.878 45.4535 170.878 45.7082C170.878 46.0557 171.008 46.3183 171.265 46.4934C171.527 46.6684 171.856 46.756 172.254 46.756Z" fill="white"/>
<path d="M177.918 40.9918V47.5041H176.918V40.9918H177.918ZM181.276 43.7877V44.7214H177.682V43.7877H181.276ZM182.038 40.9918V47.5041H181.038V40.9918H182.038Z" fill="white"/>
<path d="M184.871 46.0265L188.007 40.9918H189.16V47.5041H188.16V42.4693L185.041 47.5041H183.871V40.9918H184.871V46.0265Z" fill="white"/>
<path d="M190.584 45.8408H191.653C191.674 46.1353 191.81 46.3581 192.054 46.512C192.298 46.6658 192.616 46.7401 193.009 46.7401C193.409 46.7401 193.754 46.6578 194.038 46.4907C194.322 46.3236 194.465 46.0583 194.465 45.6869C194.465 45.4694 194.412 45.2785 194.303 45.1167C194.194 44.9548 194.046 44.8275 193.849 44.7373C193.653 44.6472 193.425 44.6021 193.16 44.6021H192.04V43.7028H193.16C193.558 43.7028 193.852 43.6126 194.043 43.4322C194.234 43.2518 194.33 43.0264 194.33 42.7532C194.33 42.4614 194.226 42.2279 194.019 42.0528C193.812 41.8751 193.52 41.7876 193.141 41.7876C192.759 41.7876 192.441 41.8724 192.186 42.0449C191.932 42.2146 191.799 42.4348 191.783 42.7027H190.733C190.743 42.3526 190.852 42.0422 191.054 41.7716C191.258 41.5011 191.534 41.2889 191.884 41.135C192.234 40.9812 192.634 40.9043 193.088 40.9043C193.547 40.9043 193.945 40.9838 194.282 41.143C194.619 41.3021 194.881 41.5196 195.067 41.7902C195.253 42.0634 195.345 42.3711 195.345 42.716C195.345 43.0821 195.242 43.3792 195.035 43.6073C194.828 43.8328 194.571 43.9946 194.261 44.0901V44.1564C194.507 44.1723 194.719 44.2519 194.903 44.3925C195.086 44.5331 195.226 44.7135 195.33 44.9389C195.43 45.1644 195.483 45.4111 195.483 45.6817C195.483 46.0769 195.377 46.4218 195.165 46.7136C194.953 47.0053 194.661 47.2335 194.292 47.3926C193.924 47.5518 193.499 47.6314 193.024 47.6314C192.563 47.6314 192.152 47.5545 191.786 47.4033C191.422 47.2521 191.133 47.0425 190.918 46.7719C190.706 46.5093 190.595 46.1963 190.584 45.8408Z" fill="white"/>
<path d="M197.893 40.9915V47.5038H196.893V40.9915H197.893ZM200.452 46.1457L202.726 40.9915H203.675L200.861 47.5038H200.047L197.283 40.9915H198.216L200.452 46.1457ZM203.012 47.5011V40.9889H204.012V47.5011H203.012Z" fill="white"/>
<path d="M208.489 47.639C207.9 47.639 207.385 47.4984 206.945 47.2199C206.502 46.9413 206.157 46.5488 205.91 46.0448C205.664 45.5407 205.539 44.9545 205.539 44.2808C205.539 43.6017 205.664 43.0101 205.91 42.5034C206.157 41.9968 206.502 41.6042 206.945 41.3257C207.388 41.0471 207.903 40.9066 208.489 40.9066C209.075 40.9066 209.592 41.0471 210.035 41.3257C210.478 41.6042 210.823 41.9994 211.07 42.5034C211.317 43.0101 211.441 43.6017 211.441 44.2808C211.441 44.9545 211.317 45.5407 211.07 46.0448C210.823 46.5488 210.478 46.9387 210.035 47.2199C209.592 47.501 209.075 47.639 208.489 47.639ZM208.489 46.7398C208.934 46.7398 209.303 46.6257 209.592 46.3976C209.881 46.1694 210.094 45.867 210.232 45.4956C210.37 45.1216 210.439 44.7185 210.439 44.2834C210.439 43.8484 210.37 43.4425 210.232 43.0658C210.094 42.6892 209.879 42.3868 209.592 42.1533C209.303 41.9226 208.937 41.8058 208.489 41.8058C208.043 41.8058 207.674 41.9226 207.388 42.1533C207.099 42.3841 206.887 42.6892 206.749 43.0658C206.611 43.4425 206.542 43.8484 206.542 44.2834C206.542 44.7185 206.611 45.1216 206.749 45.4956C206.887 45.8697 207.101 46.1694 207.388 46.3976C207.674 46.6257 208.043 46.7398 208.489 46.7398Z" fill="white"/>
<path d="M212.965 47.5011V40.9889H215.628C216.328 40.9889 216.885 41.148 217.299 41.4637C217.713 41.7794 217.917 42.1985 217.917 42.7184C217.917 43.1137 217.801 43.4187 217.565 43.6362C217.331 43.8511 217.029 43.9997 216.663 44.0739C216.904 44.1084 217.137 44.1933 217.363 44.3286C217.588 44.4639 217.779 44.6496 217.928 44.8857C218.076 45.1218 218.153 45.4108 218.153 45.753C218.153 46.0873 218.069 46.3844 217.899 46.647C217.729 46.9096 217.485 47.1165 217.169 47.2704C216.854 47.4243 216.474 47.4985 216.034 47.4985H212.965V47.5011ZM213.914 43.7211H215.628C215.896 43.7211 216.127 43.684 216.318 43.6097C216.509 43.5355 216.657 43.4267 216.761 43.2888C216.864 43.1508 216.915 42.9837 216.915 42.79C216.915 42.5168 216.801 42.2993 216.572 42.1428C216.344 41.9863 216.029 41.9067 215.628 41.9067H213.914V43.7211ZM213.914 46.586H216.034C216.379 46.586 216.649 46.5038 216.843 46.3393C217.039 46.1749 217.135 45.952 217.135 45.6708C217.135 45.334 217.037 45.0687 216.843 44.875C216.649 44.6814 216.379 44.5859 216.034 44.5859H213.914V46.586Z" fill="white"/>
<path d="M224.021 46.0265L227.159 40.9918H228.313V47.5041H227.313V42.4694L224.193 47.5041H223.023V40.9918H224.023V46.0265H224.021Z" fill="white"/>
<path d="M234.498 40.9915V47.5038H233.498V40.9915H234.498ZM237.058 46.1457L239.331 40.9915H240.281L237.466 47.5038H236.652L233.888 40.9915H234.822L237.058 46.1457ZM239.62 47.5011V40.9889H240.62V47.5011H239.62Z" fill="white"/>
<path d="M244.367 47.6553C243.953 47.6553 243.579 47.5757 243.245 47.4191C242.908 47.2626 242.64 47.0346 242.444 46.7375C242.245 46.4404 242.146 46.0796 242.146 45.6552C242.146 45.2811 242.221 44.9787 242.367 44.7453C242.513 44.5119 242.709 44.3288 242.956 44.1962C243.202 44.0636 243.473 43.9627 243.773 43.8964C244.072 43.8301 244.372 43.7771 244.674 43.7373C245.07 43.6869 245.391 43.6471 245.64 43.6206C245.887 43.5941 246.067 43.549 246.181 43.4827C246.295 43.4163 246.354 43.3049 246.354 43.1431V43.1086C246.354 42.6895 246.24 42.3659 246.011 42.1351C245.783 41.9043 245.438 41.7876 244.979 41.7876C244.502 41.7876 244.128 41.8911 243.857 42.1006C243.587 42.3102 243.396 42.533 243.284 42.769L242.335 42.4296C242.505 42.0343 242.73 41.724 243.017 41.5038C243.3 41.281 243.611 41.1271 243.95 41.0369C244.287 40.9467 244.621 40.9043 244.948 40.9043C245.157 40.9043 245.399 40.9281 245.669 40.9785C245.94 41.0289 246.205 41.1297 246.462 41.2809C246.717 41.4348 246.932 41.6629 247.102 41.9706C247.271 42.2783 247.356 42.6922 247.356 43.2094V47.4987H246.356V46.618H246.306C246.237 46.7586 246.125 46.9099 245.966 47.0717C245.807 47.2335 245.598 47.3687 245.335 47.4828C245.067 47.5995 244.746 47.6553 244.367 47.6553ZM244.521 46.756C244.916 46.756 245.25 46.6791 245.523 46.5226C245.797 46.3661 246.003 46.1671 246.141 45.9204C246.279 45.6737 246.351 45.4164 246.351 45.1459V44.2307C246.308 44.2811 246.216 44.3288 246.072 44.3686C245.929 44.4084 245.765 44.4456 245.582 44.4747C245.396 44.5039 245.218 44.5305 245.043 44.5517C244.868 44.5729 244.728 44.5915 244.621 44.6047C244.361 44.6392 244.12 44.6922 243.895 44.7691C243.669 44.8434 243.489 44.9548 243.353 45.1034C243.218 45.2519 243.147 45.4535 243.147 45.7082C243.147 46.0557 243.277 46.3183 243.534 46.4934C243.794 46.6684 244.123 46.756 244.521 46.756Z" fill="white"/>
<path d="M249.184 40.9918H250.184V46.5703H252.643V40.9918H253.643V46.5703H256.102V40.9918H257.102V47.5041H249.184V40.9918Z" fill="white"/>
<path d="M259.933 46.0265L263.071 40.9918H264.225V47.5041H263.225V42.4694L260.105 47.5041H258.936V40.9918H259.936V46.0265H259.933Z" fill="white"/>
<path d="M267.055 40.9918V47.5041H266.055V40.9918H267.055ZM270.41 43.7877V44.7214H266.816V43.7877H270.41ZM271.174 40.9918V47.5041H270.174V40.9918H271.174Z" fill="white"/>
<path d="M27.2991 38.259C21.8717 38.259 17.4551 33.8424 17.4551 28.415C17.4551 22.9877 21.8717 18.571 27.2991 18.571C32.7264 18.571 37.143 22.9877 37.143 28.415C37.1404 33.8424 32.7264 38.259 27.2991 38.259ZM27.2991 20.6958C23.0416 20.6958 19.5772 24.1602 19.5772 28.4177C19.5772 32.6752 23.0416 36.1395 27.2991 36.1395C31.5566 36.1395 35.0209 32.6752 35.0209 28.4177C35.0209 24.1602 31.5566 20.6958 27.2991 20.6958Z" fill="white"/>
<path d="M27.2988 44.0871C25.8584 44.0871 24.4632 43.8881 23.1395 43.5247L21.3145 48.6045C22.0758 48.8777 22.8477 49.0979 23.6382 49.265L24.3968 55.4192C24.4976 56.2707 25.2138 56.8755 26.0468 56.8277L32.5033 56.5253C33.3363 56.4749 33.9941 55.7799 34.0472 54.9841L34.1718 48.7982C35.6918 48.2968 37.164 47.6018 38.5169 46.7476L43.3686 50.5861C44.0158 51.0503 44.9708 50.9866 45.5411 50.3765L49.8808 45.5885C50.4485 44.9783 50.4538 43.9889 49.8437 43.4213L45.5597 38.9728C45.9417 38.2353 46.2653 37.4925 46.5359 36.7392C46.5359 36.7365 46.5385 36.7339 46.5385 36.7339L41.5462 34.9407C39.0713 40.3362 33.6254 44.0871 27.2988 44.0871Z" fill="white"/>
<path d="M11.6265 28.4157C11.6265 27.4607 11.7167 26.5243 11.8811 25.6171L7.39816 24.007C7.15677 24.6834 6.95783 25.3784 6.81193 26.076L1.27054 26.7604C0.503926 26.8533 -0.0424957 27.4952 0.00259936 28.2459L0.275798 34.0579C0.320893 34.8086 0.946913 35.4001 1.66313 35.4479L7.2337 35.5593C7.68465 36.928 8.31068 38.2544 9.12504 39.4879L5.66866 43.8568C5.18588 44.4695 5.24422 45.329 5.85699 45.8118L10.1675 49.7192C10.7166 50.2311 11.6079 50.2364 12.1199 49.6873L16.1254 45.8303C16.7726 46.1646 17.4225 46.451 18.0857 46.6924C18.0963 46.6977 18.1096 46.7004 18.1202 46.7031L19.7542 42.1538C14.9078 39.4879 11.6265 34.3364 11.6265 28.4157Z" fill="white"/>
<path d="M54.355 22.9722C54.3099 22.2082 53.6866 21.5583 52.9412 21.5557L47.2672 21.4416C46.8056 20.0463 46.1689 18.6961 45.3387 17.4361L48.8614 12.985C49.3521 12.3616 49.2752 11.5313 48.6678 10.9929L44.275 7.01122C43.7152 6.48865 42.808 6.48331 42.2855 7.04567L38.203 10.9743C37.5319 10.6268 36.8582 10.3323 36.1711 10.0856L34.5742 14.5341C39.5639 17.1549 42.9699 22.386 42.9699 28.4154C42.9699 29.511 42.8558 30.5827 42.6409 31.6146L47.0974 33.2141C47.3441 32.5244 47.543 31.8241 47.6942 31.1052L53.3391 30.4076C54.1216 30.3147 54.676 29.6596 54.6309 28.8956L54.355 22.9722Z" fill="white"/>
<path d="M27.2985 12.7436C28.7734 12.7436 30.1979 12.9505 31.5507 13.3325L33.3439 8.34026C33.3386 8.3376 33.3307 8.33494 33.3254 8.33229C32.5614 8.05641 31.7842 7.8389 30.9884 7.66913L30.2191 1.43009C30.1156 0.565322 29.3915 -0.0474742 28.548 0.00292616L22.0038 0.30802C21.1603 0.35842 20.4918 1.064 20.4388 1.8704L20.3115 8.14131C18.7703 8.65062 17.2768 9.35353 15.9054 10.2183L10.9847 6.32687C10.295 5.78308 9.37724 5.86797 8.78304 6.5391L4.38227 11.3935C3.80664 12.0142 3.80134 13.0142 4.41941 13.5925L8.7618 18.1046C8.38512 18.8261 8.0562 19.5769 7.77768 20.3488C7.77502 20.3568 7.77236 20.3673 7.76971 20.3753L12.9026 22.2189C15.3006 16.6483 20.842 12.7436 27.2985 12.7436Z" fill="#FF0000"/>
</g>
<defs>
<clipPath id="clip0_147_2558">
<rect width="274" height="57" fill="white"/>
</clipPath>
</defs>
</svg>
